<?xml version="1.0" encoding="UTF-8"?>
<!DOCTYPE svg PUBLIC "-//W3C//DTD SVG 1.1//EN" "http://www.w3.org/Graphics/SVG/1.1/DTD/svg11.dtd">
<!-- Creator: CorelDRAW -->
<svg xmlns="http://www.w3.org/2000/svg" xml:space="preserve" width="297mm" height="75mm" version="1.1" style="shape-rendering:geometricPrecision; text-rendering:geometricPrecision; image-rendering:optimizeQuality; fill-rule:evenodd; clip-rule:evenodd"
viewBox="0 0 29700 7500"
 xmlns:xlink="http://www.w3.org/1999/xlink"
 xmlns:xodm="http://www.corel.com/coreldraw/odm/2003">
 <defs>
  <style type="text/css">
   <![CDATA[
    .str0 {stroke:#3E4095;stroke-width:20;stroke-miterlimit:22.9256}
    .fil0 {fill:#00AFEF}
    .fil2 {fill:#3E4095}
    .fil1 {fill:#3E4095;fill-rule:nonzero}
   ]]>
  </style>
 </defs>
 <g id="Camada_x0020_1">
  <metadata id="CorelCorpID_0Corel-Layer"/>
  <polygon class="fil0 str0" points="4514.16,2649.43 994.53,1597.57 2302.02,3372.2 2636.16,3471.56 2737.85,3660.41 2592.58,3863.79 2631.78,6023.93 3042.94,6231.69 4728.16,3486.09 4839.53,3200.4 4889.87,2991.57 6151.88,2948.59 7720.89,979.58 6021.14,1263.46 "/>
  <g id="_2391893449872">
   <g>
    <path class="fil1" d="M4554.77 2594.53l4.07 3.52 3.85 3.69 3.62 3.84 3.39 3.99 3.17 4.12 2.94 4.25 2.72 4.37 2.48 4.47 2.25 4.57 2.02 4.67 1.79 4.74 1.56 4.81 1.32 4.87 1.08 4.93 0.85 4.97 0.61 5 0.37 5.02 0.14 5.04 -0.11 5.04 -0.35 5.04 -0.59 5.02 -0.83 5 -1.08 4.97 -1.33 4.93 -1.57 4.87 -1.81 4.82 -2.07 4.74 -2.31 4.67 -2.57 4.58 -2.81 4.47 -3.07 4.37 -3.32 4.26 0 0 -3.53 4.08 -3.69 3.85 -3.85 3.63 -4 3.4 -4.13 3.17 -4.25 2.95 -4.37 2.71 -4.48 2.48 -4.58 2.26 -4.67 2.01 -4.74 1.79 -4.82 1.55 -4.87 1.32 -4.93 1.08 -4.97 0.84 -5 0.61 -5.02 0.37 -5.04 0.12 -5.04 -0.11 -5.04 -0.35 -5.02 -0.59 -5 -0.84 -4.97 -1.08 -4.92 -1.33 -4.87 -1.57 -4.81 -1.82 -4.74 -2.06 -4.65 -2.31 -4.57 -2.56 -4.47 -2.81 -4.36 -3.06 -4.25 -3.32 0 0 -4.07 -3.52 -3.85 -3.69 -3.62 -3.84 -3.39 -3.99 -3.17 -4.12 -2.94 -4.25 -2.72 -4.37 -2.48 -4.47 -2.25 -4.57 -2.02 -4.67 -1.79 -4.74 -1.56 -4.81 -1.32 -4.87 -1.08 -4.93 -0.85 -4.97 -0.61 -5 -0.37 -5.02 -0.14 -5.04 0.11 -5.04 0.35 -5.04 0.59 -5.02 0.83 -5 1.08 -4.97 1.33 -4.93 1.57 -4.87 1.81 -4.82 2.07 -4.74 2.31 -4.67 2.57 -4.58 2.81 -4.47 3.07 -4.37 3.32 -4.26 0 0 3.53 -4.08 3.69 -3.85 3.85 -3.63 4 -3.4 4.13 -3.17 4.25 -2.95 4.37 -2.71 4.48 -2.48 4.58 -2.26 4.67 -2.01 4.74 -1.79 4.82 -1.55 4.87 -1.32 4.93 -1.08 4.97 -0.84 5 -0.61 5.02 -0.37 5.04 -0.12 5.04 0.11 5.04 0.35 5.02 0.59 5 0.84 4.97 1.08 4.92 1.33 4.87 1.57 4.81 1.82 4.74 2.06 4.65 2.31 4.57 2.56 4.47 2.81 4.36 3.06 4.25 3.32 0 0zm252.35 356.2l-325.32 -267.45 12.7 -15.44 325.32 267.45 0.65 0.58 -13.35 14.86zm13.35 -14.86l162.75 159.63 -176.1 -144.77 13.35 -14.86zm-299.31 -293.58l299.31 293.58 -14 14.28 -299.31 -293.58 14 -14.28zm-80.46 82.03l0 0 -3.74 -3.87 -3.51 -4.01 -3.27 -4.14 -3.04 -4.27 -2.79 -4.38 -2.56 -4.49 -2.32 -4.59 -2.08 -4.68 -1.85 -4.75 -1.6 -4.82 -1.37 -4.88 -1.13 -4.93 -0.89 -4.97 -0.64 -5 -0.41 -5.02 -0.18 -5.04 0.07 -5.04 0.31 -5.03 0.55 -5.01 0.79 -4.99 1.03 -4.95 1.27 -4.91 1.5 -4.86 1.75 -4.79 1.99 -4.72 2.24 -4.63 2.47 -4.55 2.71 -4.44 2.96 -4.34 3.19 -4.21 3.44 -4.09 3.68 -3.95 0 0 3.87 -3.75 4.02 -3.52 4.16 -3.27 4.27 -3.04 4.39 -2.8 4.5 -2.56 4.59 -2.32 4.68 -2.08 4.76 -1.85 4.83 -1.6 4.88 -1.36 4.93 -1.12 4.97 -0.89 5.01 -0.64 5.02 -0.41 5.03 -0.17 5.04 0.08 5.03 0.31 5.01 0.55 4.99 0.8 4.95 1.03 4.91 1.27 4.85 1.51 4.79 1.75 4.71 1.99 4.63 2.23 4.54 2.47 4.44 2.72 4.33 2.95 4.2 3.19 4.08 3.43 3.94 3.67 0 0 3.74 3.87 3.51 4.01 3.27 4.14 3.04 4.27 2.79 4.38 2.56 4.49 2.32 4.59 2.08 4.68 1.85 4.75 1.6 4.82 1.37 4.88 1.13 4.93 0.89 4.97 0.64 5 0.41 5.02 0.18 5.04 -0.07 5.04 -0.31 5.03 -0.55 5.01 -0.79 4.99 -1.03 4.95 -1.27 4.91 -1.5 4.86 -1.75 4.79 -1.99 4.72 -2.24 4.63 -2.47 4.55 -2.71 4.44 -2.96 4.34 -3.19 4.21 -3.44 4.09 -3.68 3.95 0 0 -3.87 3.75 -4.02 3.52 -4.16 3.27 -4.27 3.04 -4.39 2.8 -4.5 2.56 -4.59 2.32 -4.68 2.08 -4.76 1.85 -4.83 1.6 -4.88 1.36 -4.93 1.12 -4.97 0.89 -5.01 0.64 -5.02 0.41 -5.03 0.17 -5.04 -0.08 -5.03 -0.31 -5.01 -0.55 -4.99 -0.8 -4.95 -1.03 -4.91 -1.27 -4.85 -1.51 -4.79 -1.75 -4.71 -1.99 -4.63 -2.23 -4.54 -2.47 -4.44 -2.72 -4.33 -2.95 -4.2 -3.19 -4.08 -3.43 -3.94 -3.67z"/>
   </g>
   <g>
    <path class="fil1" d="M6106.52 1324.41l-3.24 4.31 -3.42 4.08 -3.59 3.88 -3.74 3.66 -3.9 3.44 -4.04 3.22 -4.17 3.01 -4.3 2.78 -4.41 2.56 -4.51 2.33 -4.61 2.11 -4.7 1.88 -4.77 1.64 -4.84 1.42 -4.9 1.19 -4.94 0.94 -4.99 0.72 -5.02 0.47 -5.04 0.24 -5.05 -0.01 -5.05 -0.24 -5.05 -0.5 -5.03 -0.73 -5 -0.99 -4.97 -1.23 -4.93 -1.49 -4.87 -1.74 -4.82 -1.99 -4.74 -2.25 -4.66 -2.5 -4.56 -2.76 -4.47 -3.02 0 0 -4.32 -3.25 -4.09 -3.43 -3.88 -3.59 -3.67 -3.75 -3.44 -3.91 -3.23 -4.04 -3 -4.18 -2.79 -4.3 -2.55 -4.41 -2.34 -4.52 -2.1 -4.62 -1.87 -4.69 -1.65 -4.78 -1.41 -4.84 -1.18 -4.9 -0.95 -4.95 -0.71 -4.99 -0.47 -5.01 -0.23 -5.04 0.01 -5.05 0.25 -5.05 0.5 -5.04 0.74 -5.03 0.99 -5 1.23 -4.97 1.49 -4.92 1.74 -4.87 1.99 -4.8 2.24 -4.73 2.5 -4.66 2.76 -4.56 3.01 -4.45 0 0 3.24 -4.31 3.42 -4.08 3.59 -3.88 3.74 -3.66 3.9 -3.44 4.04 -3.22 4.17 -3.01 4.3 -2.78 4.41 -2.56 4.51 -2.33 4.61 -2.11 4.7 -1.88 4.77 -1.64 4.84 -1.42 4.9 -1.19 4.94 -0.94 4.99 -0.72 5.02 -0.47 5.04 -0.24 5.05 0.01 5.05 0.24 5.05 0.5 5.03 0.73 5 0.99 4.97 1.23 4.93 1.49 4.87 1.74 4.82 1.99 4.74 2.25 4.66 2.5 4.56 2.76 4.47 3.02 0 0 4.32 3.25 4.09 3.43 3.88 3.59 3.67 3.75 3.44 3.91 3.23 4.04 3 4.18 2.79 4.3 2.55 4.41 2.34 4.52 2.1 4.62 1.87 4.69 1.65 4.78 1.41 4.84 1.18 4.9 0.95 4.95 0.71 4.99 0.47 5.01 0.23 5.04 -0.01 5.05 -0.25 5.05 -0.5 5.04 -0.74 5.03 -0.99 5 -1.23 4.97 -1.49 4.92 -1.74 4.87 -1.99 4.8 -2.24 4.73 -2.5 4.66 -2.76 4.56 -3.01 4.45 0 0zm-1296.21 1617.77l1202.69 -1684.53 16.28 11.62 -1202.69 1684.53 -2.53 2.47 -13.75 -14.09zm13.75 14.09l-46.16 31.31 32.41 -45.4 13.75 14.09zm2902.44 -1968.42l-2902.44 1968.42 -11.22 -16.56 2902.44 -1968.42 11.22 16.56zm-64.49 -95.1l0 0 4.53 -2.91 4.63 -2.64 4.7 -2.39 4.79 -2.13 4.85 -1.87 4.91 -1.62 4.95 -1.37 5 -1.12 5.02 -0.86 5.05 -0.62 5.05 -0.38 5.06 -0.13 5.04 0.12 5.03 0.35 5.01 0.59 4.97 0.83 4.92 1.06 4.87 1.3 4.81 1.53 4.73 1.76 4.65 1.99 4.56 2.21 4.47 2.44 4.35 2.66 4.23 2.89 4.1 3.1 3.97 3.32 3.82 3.54 3.66 3.76 3.5 3.96 3.33 4.18 3.14 4.39 0 0 2.91 4.54 2.66 4.64 2.39 4.71 2.13 4.8 1.87 4.86 1.62 4.91 1.37 4.96 1.11 5 0.87 5.03 0.61 5.04 0.37 5.06 0.13 5.06 -0.12 5.05 -0.35 5.03 -0.6 5 -0.83 4.97 -1.07 4.92 -1.3 4.87 -1.54 4.81 -1.76 4.73 -1.99 4.65 -2.22 4.55 -2.44 4.46 -2.66 4.35 -2.89 4.22 -3.1 4.1 -3.32 3.96 -3.53 3.82 -3.75 3.65 -3.96 3.5 -4.17 3.32 -4.38 3.13 0 0 -4.53 2.91 -4.63 2.64 -4.7 2.39 -4.79 2.13 -4.85 1.87 -4.91 1.62 -4.95 1.37 -5 1.12 -5.02 0.86 -5.05 0.62 -5.05 0.38 -5.06 0.13 -5.04 -0.12 -5.03 -0.35 -5.01 -0.59 -4.97 -0.83 -4.92 -1.06 -4.87 -1.3 -4.81 -1.53 -4.73 -1.76 -4.65 -1.99 -4.56 -2.21 -4.47 -2.44 -4.35 -2.66 -4.23 -2.89 -4.1 -3.1 -3.97 -3.32 -3.82 -3.54 -3.66 -3.76 -3.5 -3.96 -3.33 -4.18 -3.14 -4.39 0 0 -2.91 -4.54 -2.66 -4.64 -2.39 -4.71 -2.13 -4.8 -1.87 -4.86 -1.62 -4.91 -1.37 -4.96 -1.11 -5 -0.87 -5.03 -0.61 -5.04 -0.37 -5.06 -0.13 -5.06 0.12 -5.05 0.35 -5.03 0.6 -5 0.83 -4.97 1.07 -4.92 1.3 -4.87 1.54 -4.81 1.76 -4.73 1.99 -4.65 2.22 -4.55 2.44 -4.46 2.66 -4.35 2.89 -4.22 3.1 -4.1 3.32 -3.96 3.53 -3.82 3.75 -3.65 3.96 -3.5 4.17 -3.32 4.38 -3.13z"/>
   </g>
   <g>
    <path class="fil1" d="M6151.62 3053.49l-5.38 -0.15 -5.31 -0.42 -5.24 -0.68 -5.15 -0.94 -5.06 -1.18 -4.97 -1.43 -4.87 -1.66 -4.75 -1.89 -4.64 -2.12 -4.52 -2.33 -4.38 -2.53 -4.25 -2.75 -4.11 -2.93 -3.96 -3.13 -3.8 -3.31 -3.64 -3.48 -3.47 -3.65 -3.29 -3.82 -3.11 -3.97 -2.92 -4.12 -2.72 -4.26 -2.52 -4.4 -2.31 -4.53 -2.1 -4.65 -1.87 -4.77 -1.64 -4.88 -1.4 -4.98 -1.17 -5.07 -0.91 -5.17 -0.66 -5.25 -0.39 -5.32 -0.12 -5.4 0 0 0.15 -5.39 0.42 -5.33 0.68 -5.24 0.94 -5.16 1.19 -5.07 1.43 -4.97 1.67 -4.87 1.89 -4.76 2.12 -4.64 2.33 -4.52 2.55 -4.39 2.74 -4.24 2.94 -4.11 3.13 -3.96 3.32 -3.79 3.48 -3.64 3.66 -3.47 3.82 -3.28 3.97 -3.11 4.12 -2.91 4.27 -2.72 4.4 -2.52 4.52 -2.31 4.65 -2.09 4.77 -1.86 4.87 -1.64 4.98 -1.4 5.07 -1.16 5.15 -0.91 5.24 -0.66 5.32 -0.39 5.38 -0.12 0 0 5.38 0.15 5.31 0.42 5.24 0.68 5.15 0.94 5.06 1.18 4.97 1.43 4.87 1.66 4.75 1.89 4.64 2.12 4.52 2.33 4.38 2.53 4.25 2.75 4.11 2.93 3.96 3.13 3.8 3.31 3.64 3.48 3.47 3.65 3.29 3.82 3.11 3.97 2.92 4.12 2.72 4.26 2.52 4.4 2.31 4.53 2.1 4.65 1.87 4.77 1.64 4.88 1.4 4.98 1.17 5.07 0.91 5.17 0.66 5.25 0.39 5.32 0.12 5.4 0 0 -0.15 5.39 -0.42 5.33 -0.68 5.24 -0.94 5.16 -1.19 5.07 -1.43 4.97 -1.67 4.87 -1.89 4.76 -2.12 4.64 -2.33 4.52 -2.55 4.39 -2.74 4.24 -2.94 4.11 -3.13 3.96 -3.32 3.79 -3.48 3.64 -3.66 3.47 -3.82 3.28 -3.97 3.11 -4.12 2.91 -4.27 2.72 -4.4 2.52 -4.52 2.31 -4.65 2.09 -4.77 1.86 -4.87 1.64 -4.98 1.4 -5.07 1.16 -5.15 0.91 -5.24 0.66 -5.32 0.39 -5.38 0.12 0 0zm-1335.96 -118.32l1336.26 3.42 -0.06 20 -1336.26 -3.42 -9.93 -9.07 9.99 -10.93zm-9.99 10.93l-1.03 -10.96 11.02 0.03 -9.99 10.93zm23.9 255.23l-23.9 -255.23 19.92 -1.86 23.9 255.23 -19.92 1.86zm114.41 -10.71l0 0 0.36 5.37 0.09 5.33 -0.17 5.28 -0.44 5.21 -0.7 5.16 -0.94 5.08 -1.19 5 -1.43 4.92 -1.66 4.82 -1.89 4.71 -2.1 4.61 -2.32 4.5 -2.53 4.37 -2.74 4.23 -2.92 4.1 -3.12 3.96 -3.31 3.8 -3.48 3.65 -3.66 3.47 -3.82 3.3 -3.98 3.12 -4.14 2.93 -4.28 2.74 -4.43 2.53 -4.57 2.32 -4.7 2.1 -4.82 1.87 -4.94 1.65 -5.06 1.4 -5.16 1.15 -5.26 0.91 -5.36 0.64 0 0 -5.38 0.36 -5.34 0.09 -5.29 -0.17 -5.23 -0.44 -5.16 -0.7 -5.08 -0.95 -5.01 -1.19 -4.92 -1.43 -4.82 -1.67 -4.72 -1.89 -4.61 -2.11 -4.49 -2.33 -4.37 -2.53 -4.24 -2.74 -4.1 -2.93 -3.95 -3.12 -3.8 -3.31 -3.64 -3.48 -3.47 -3.66 -3.3 -3.83 -3.11 -3.98 -2.93 -4.14 -2.73 -4.28 -2.52 -4.43 -2.32 -4.57 -2.09 -4.69 -1.88 -4.82 -1.64 -4.93 -1.4 -5.05 -1.15 -5.15 -0.9 -5.25 -0.64 -5.35 0 0 -0.36 -5.37 -0.09 -5.33 0.17 -5.28 0.44 -5.21 0.7 -5.16 0.94 -5.08 1.19 -5 1.43 -4.92 1.66 -4.82 1.89 -4.71 2.1 -4.61 2.32 -4.5 2.53 -4.37 2.74 -4.23 2.92 -4.1 3.12 -3.96 3.31 -3.8 3.48 -3.65 3.66 -3.47 3.82 -3.3 3.98 -3.12 4.14 -2.93 4.28 -2.74 4.43 -2.53 4.57 -2.32 4.7 -2.1 4.82 -1.87 4.94 -1.65 5.06 -1.4 5.16 -1.15 5.26 -0.91 5.36 -0.64 0 0 5.38 -0.36 5.34 -0.09 5.29 0.17 5.23 0.44 5.16 0.7 5.08 0.95 5.01 1.19 4.92 1.43 4.82 1.67 4.72 1.89 4.61 2.11 4.49 2.33 4.37 2.53 4.24 2.74 4.1 2.93 3.95 3.12 3.8 3.31 3.64 3.48 3.47 3.66 3.3 3.83 3.11 3.98 2.93 4.14 2.73 4.28 2.52 4.43 2.32 4.57 2.09 4.69 1.88 4.82 1.64 4.93 1.4 5.05 1.15 5.15 0.9 5.25 0.64 5.35z"/>
   </g>
   <g>
    <path class="fil1" d="M4624.79 3468.23l1.05 -5.28 1.3 -5.16 1.55 -5.05 1.79 -4.92 2.02 -4.8 2.24 -4.65 2.45 -4.52 2.67 -4.37 2.86 -4.22 3.05 -4.06 3.24 -3.9 3.41 -3.73 3.59 -3.56 3.74 -3.37 3.9 -3.2 4.05 -3 4.18 -2.81 4.31 -2.6 4.44 -2.4 4.55 -2.19 4.66 -1.97 4.76 -1.75 4.85 -1.51 4.94 -1.29 5.01 -1.04 5.09 -0.8 5.14 -0.56 5.2 -0.29 5.25 -0.03 5.28 0.23 5.32 0.51 5.34 0.78 0 0 5.29 1.05 5.18 1.31 5.05 1.55 4.93 1.79 4.8 2.02 4.66 2.25 4.52 2.46 4.38 2.67 4.22 2.86 4.06 3.06 3.9 3.24 3.72 3.42 3.56 3.59 3.37 3.75 3.19 3.9 3 4.05 2.81 4.18 2.6 4.32 2.39 4.44 2.18 4.55 1.97 4.66 1.74 4.76 1.52 4.85 1.28 4.93 1.04 5.01 0.8 5.08 0.55 5.14 0.29 5.19 0.03 5.24 -0.23 5.27 -0.51 5.31 -0.78 5.33 0 0 -1.05 5.28 -1.3 5.16 -1.55 5.05 -1.79 4.92 -2.02 4.8 -2.24 4.65 -2.45 4.52 -2.67 4.37 -2.86 4.22 -3.05 4.06 -3.24 3.9 -3.41 3.73 -3.59 3.56 -3.74 3.37 -3.9 3.2 -4.05 3 -4.18 2.81 -4.31 2.6 -4.44 2.4 -4.55 2.19 -4.66 1.97 -4.76 1.75 -4.85 1.51 -4.94 1.29 -5.01 1.04 -5.09 0.8 -5.14 0.56 -5.2 0.29 -5.25 0.03 -5.28 -0.23 -5.32 -0.51 -5.34 -0.78 0 0 -5.29 -1.05 -5.18 -1.31 -5.05 -1.55 -4.93 -1.79 -4.8 -2.02 -4.66 -2.25 -4.52 -2.46 -4.38 -2.67 -4.22 -2.86 -4.06 -3.06 -3.9 -3.24 -3.72 -3.42 -3.56 -3.59 -3.37 -3.75 -3.19 -3.9 -3 -4.05 -2.81 -4.18 -2.6 -4.32 -2.39 -4.44 -2.18 -4.55 -1.97 -4.66 -1.74 -4.76 -1.52 -4.85 -1.28 -4.93 -1.04 -5.01 -0.8 -5.08 -0.55 -5.14 -0.29 -5.19 -0.03 -5.24 0.23 -5.27 0.51 -5.31 0.78 -5.33 0 0zm207.03 -523.52l-93.81 543.08 -19.7 -3.4 93.81 -543.08 6.12 -7.58 13.58 10.98zm-13.58 -10.98l16.63 -6.69 -3.05 17.67 -13.58 -10.98zm-1168.86 470.44l1168.86 -470.44 7.46 18.56 -1168.86 470.44 -7.46 -18.56zm42.9 106.6l0 0 -5.05 1.88 -5.08 1.61 -5.1 1.33 -5.13 1.07 -5.14 0.8 -5.14 0.55 -5.13 0.29 -5.12 0.03 -5.09 -0.22 -5.06 -0.46 -5.02 -0.7 -4.97 -0.95 -4.91 -1.17 -4.84 -1.41 -4.77 -1.64 -4.68 -1.86 -4.59 -2.09 -4.48 -2.29 -4.37 -2.52 -4.26 -2.72 -4.12 -2.93 -3.99 -3.13 -3.85 -3.32 -3.69 -3.53 -3.52 -3.71 -3.35 -3.91 -3.18 -4.08 -2.98 -4.27 -2.79 -4.44 -2.58 -4.62 -2.36 -4.79 -2.15 -4.95 0 0 -1.88 -5.06 -1.61 -5.09 -1.34 -5.12 -1.07 -5.13 -0.8 -5.15 -0.55 -5.14 -0.28 -5.14 -0.03 -5.12 0.22 -5.1 0.46 -5.06 0.71 -5.02 0.95 -4.97 1.18 -4.91 1.42 -4.84 1.64 -4.77 1.86 -4.68 2.09 -4.58 2.3 -4.48 2.52 -4.38 2.72 -4.25 2.93 -4.12 3.13 -3.98 3.33 -3.84 3.53 -3.69 3.71 -3.52 3.9 -3.35 4.08 -3.16 4.27 -2.98 4.43 -2.78 4.61 -2.58 4.78 -2.36 4.94 -2.14 0 0 5.05 -1.88 5.08 -1.61 5.1 -1.33 5.13 -1.07 5.14 -0.8 5.14 -0.55 5.13 -0.29 5.12 -0.03 5.09 0.22 5.06 0.46 5.02 0.7 4.97 0.95 4.91 1.17 4.84 1.41 4.77 1.64 4.68 1.86 4.59 2.09 4.48 2.29 4.37 2.52 4.26 2.72 4.12 2.93 3.99 3.13 3.85 3.32 3.69 3.53 3.52 3.71 3.35 3.91 3.18 4.08 2.98 4.27 2.79 4.44 2.58 4.62 2.36 4.79 2.15 4.95 0 0 1.88 5.06 1.61 5.09 1.34 5.12 1.07 5.13 0.8 5.15 0.55 5.14 0.28 5.14 0.03 5.12 -0.22 5.1 -0.46 5.06 -0.71 5.02 -0.95 4.97 -1.18 4.91 -1.42 4.84 -1.64 4.77 -1.86 4.68 -2.09 4.58 -2.3 4.48 -2.52 4.38 -2.72 4.25 -2.93 4.12 -3.13 3.98 -3.33 3.84 -3.53 3.69 -3.71 3.52 -3.9 3.35 -4.08 3.16 -4.27 2.98 -4.43 2.78 -4.61 2.58 -4.78 2.36 -4.94 2.14z"/>
   </g>
   <g>
    <path class="fil1" d="M1029.51 1498.68l5.03 1.92 4.88 2.16 4.71 2.37 4.55 2.59 4.39 2.8 4.21 2.99 4.04 3.18 3.86 3.36 3.68 3.53 3.49 3.69 3.3 3.85 3.1 4 2.9 4.13 2.7 4.26 2.49 4.38 2.28 4.49 2.06 4.59 1.85 4.69 1.62 4.78 1.39 4.86 1.15 4.92 0.93 4.99 0.68 5.04 0.43 5.08 0.19 5.12 -0.07 5.14 -0.32 5.17 -0.58 5.17 -0.85 5.18 -1.12 5.17 -1.4 5.15 -1.67 5.13 0 0 -1.93 5.04 -2.15 4.89 -2.39 4.72 -2.59 4.56 -2.8 4.39 -3 4.22 -3.18 4.04 -3.37 3.86 -3.53 3.68 -3.7 3.49 -3.85 3.29 -4 3.1 -4.14 2.9 -4.26 2.7 -4.38 2.49 -4.5 2.27 -4.59 2.06 -4.7 1.84 -4.77 1.62 -4.86 1.38 -4.92 1.15 -4.99 0.92 -5.03 0.68 -5.08 0.43 -5.12 0.18 -5.14 -0.06 -5.15 -0.33 -5.17 -0.58 -5.17 -0.85 -5.16 -1.12 -5.14 -1.39 -5.12 -1.67 0 0 -5.03 -1.92 -4.88 -2.16 -4.71 -2.37 -4.55 -2.59 -4.39 -2.8 -4.21 -2.99 -4.04 -3.18 -3.86 -3.36 -3.68 -3.53 -3.49 -3.69 -3.3 -3.85 -3.1 -4 -2.9 -4.13 -2.7 -4.26 -2.49 -4.38 -2.28 -4.49 -2.06 -4.59 -1.85 -4.69 -1.62 -4.78 -1.39 -4.86 -1.15 -4.92 -0.93 -4.99 -0.68 -5.04 -0.43 -5.08 -0.19 -5.12 0.07 -5.14 0.32 -5.17 0.58 -5.17 0.85 -5.18 1.12 -5.17 1.4 -5.15 1.67 -5.13 0 0 1.93 -5.04 2.15 -4.89 2.39 -4.72 2.59 -4.56 2.8 -4.39 3 -4.22 3.18 -4.04 3.37 -3.86 3.53 -3.68 3.7 -3.49 3.85 -3.29 4 -3.1 4.14 -2.9 4.26 -2.7 4.38 -2.49 4.5 -2.27 4.59 -2.06 4.7 -1.84 4.77 -1.62 4.86 -1.38 4.92 -1.15 4.99 -0.92 5.03 -0.68 5.08 -0.43 5.12 -0.18 5.14 0.06 5.15 0.33 5.17 0.58 5.17 0.85 5.16 1.12 5.14 1.39 5.12 1.67 0 0zm3781.35 1459.93l-3819.68 -1351.61 6.68 -18.86 3819.68 1351.61 -1.68 19.29 -5 -0.43zm6.68 -18.86l36.4 12.88 -38.08 6.41 1.68 -19.29zm-2517.18 422.58l2512.18 -423.01 3.32 19.72 -2512.18 423.01 -3.32 -19.72zm19.08 113.31l0 0 -5.33 0.75 -5.31 0.49 -5.27 0.21 -5.24 -0.06 -5.19 -0.31 -5.14 -0.57 -5.07 -0.82 -5.01 -1.06 -4.93 -1.3 -4.84 -1.54 -4.75 -1.76 -4.65 -1.99 -4.55 -2.2 -4.43 -2.41 -4.3 -2.62 -4.17 -2.82 -4.04 -3.02 -3.89 -3.21 -3.73 -3.39 -3.57 -3.57 -3.41 -3.74 -3.22 -3.91 -3.05 -4.08 -2.84 -4.23 -2.65 -4.38 -2.44 -4.53 -2.23 -4.67 -2 -4.81 -1.77 -4.94 -1.53 -5.06 -1.29 -5.18 -1.03 -5.3 0 0 -0.76 -5.34 -0.48 -5.32 -0.21 -5.29 0.06 -5.24 0.31 -5.2 0.57 -5.14 0.83 -5.08 1.06 -5.01 1.31 -4.93 1.54 -4.85 1.76 -4.75 1.99 -4.65 2.21 -4.55 2.42 -4.42 2.62 -4.3 2.83 -4.18 3.02 -4.03 3.21 -3.88 3.39 -3.73 3.57 -3.57 3.75 -3.4 3.91 -3.22 4.07 -3.04 4.23 -2.84 4.38 -2.65 4.53 -2.43 4.67 -2.22 4.8 -2 4.93 -1.77 5.06 -1.53 5.17 -1.28 5.28 -1.03 0 0 5.33 -0.75 5.31 -0.49 5.27 -0.21 5.24 0.06 5.19 0.31 5.14 0.57 5.07 0.82 5.01 1.06 4.93 1.3 4.84 1.54 4.75 1.76 4.65 1.99 4.55 2.2 4.43 2.41 4.3 2.62 4.17 2.82 4.04 3.02 3.89 3.21 3.73 3.39 3.57 3.57 3.41 3.74 3.22 3.91 3.05 4.08 2.84 4.23 2.65 4.38 2.44 4.53 2.23 4.67 2 4.81 1.77 4.94 1.53 5.06 1.29 5.18 1.03 5.3 0 0 0.76 5.34 0.48 5.32 0.21 5.29 -0.06 5.24 -0.31 5.2 -0.57 5.14 -0.83 5.08 -1.06 5.01 -1.31 4.93 -1.54 4.85 -1.76 4.75 -1.99 4.65 -2.21 4.55 -2.42 4.42 -2.62 4.3 -2.83 4.18 -3.02 4.03 -3.21 3.88 -3.39 3.73 -3.57 3.57 -3.75 3.4 -3.91 3.22 -4.07 3.04 -4.23 2.84 -4.38 2.65 -4.53 2.43 -4.67 2.22 -4.8 2 -4.93 1.77 -5.06 1.53 -5.17 1.28 -5.28 1.03z"/>
   </g>
   <g>
    <path class="fil1" d="M2611.5 3369.6l5.27 -1.14 5.26 -0.85 5.24 -0.58 5.23 -0.32 5.2 -0.05 5.17 0.21 5.12 0.46 5.07 0.71 5 0.95 4.94 1.19 4.87 1.42 4.78 1.66 4.68 1.87 4.59 2.1 4.48 2.31 4.36 2.52 4.24 2.72 4.1 2.93 3.97 3.12 3.81 3.31 3.66 3.49 3.49 3.68 3.32 3.85 3.14 4.02 2.95 4.18 2.76 4.35 2.54 4.51 2.34 4.65 2.11 4.8 1.89 4.94 1.64 5.08 1.4 5.21 0 0 1.14 5.28 0.85 5.27 0.59 5.26 0.31 5.23 0.05 5.21 -0.21 5.17 -0.46 5.13 -0.71 5.07 -0.96 5.01 -1.19 4.94 -1.43 4.87 -1.66 4.78 -1.88 4.68 -2.1 4.59 -2.31 4.48 -2.53 4.36 -2.73 4.23 -2.92 4.1 -3.13 3.96 -3.31 3.81 -3.49 3.66 -3.68 3.49 -3.85 3.31 -4.02 3.14 -4.19 2.94 -4.34 2.75 -4.5 2.54 -4.65 2.33 -4.79 2.11 -4.94 1.88 -5.07 1.65 -5.19 1.39 0 0 -5.27 1.14 -5.26 0.85 -5.24 0.58 -5.23 0.32 -5.2 0.05 -5.17 -0.21 -5.12 -0.46 -5.07 -0.71 -5 -0.95 -4.94 -1.19 -4.87 -1.42 -4.78 -1.66 -4.68 -1.87 -4.59 -2.1 -4.48 -2.31 -4.36 -2.52 -4.24 -2.72 -4.1 -2.93 -3.97 -3.12 -3.81 -3.31 -3.66 -3.49 -3.49 -3.68 -3.32 -3.85 -3.14 -4.02 -2.95 -4.18 -2.76 -4.35 -2.54 -4.51 -2.34 -4.65 -2.11 -4.8 -1.89 -4.94 -1.64 -5.08 -1.4 -5.21 0 0 -1.14 -5.28 -0.85 -5.27 -0.59 -5.26 -0.31 -5.23 -0.05 -5.21 0.21 -5.17 0.46 -5.13 0.71 -5.07 0.96 -5.01 1.19 -4.94 1.43 -4.87 1.66 -4.78 1.88 -4.68 2.1 -4.59 2.31 -4.48 2.53 -4.36 2.73 -4.23 2.92 -4.1 3.13 -3.96 3.31 -3.81 3.49 -3.66 3.68 -3.49 3.85 -3.31 4.02 -3.14 4.19 -2.94 4.34 -2.75 4.5 -2.54 4.65 -2.33 4.79 -2.11 4.94 -1.88 5.07 -1.65 5.19 -1.39 0 0zm2212.82 -416.87l-2185.81 528.55 -4.7 -19.44 2185.81 -528.55 5.6 19.18 -0.9 0.26zm-4.7 -19.44l206.1 -49.84 -200.5 69.02 -5.6 -19.18zm-2085.01 717.66l2084.11 -717.4 6.5 18.92 -2084.11 717.4 -6.5 -18.92zm37.39 108.65l0 0 -5.13 1.62 -5.16 1.35 -5.17 1.07 -5.17 0.81 -5.17 0.54 -5.16 0.28 -5.14 0.02 -5.12 -0.23 -5.07 -0.47 -5.03 -0.72 -4.98 -0.96 -4.91 -1.2 -4.84 -1.43 -4.77 -1.65 -4.67 -1.88 -4.58 -2.1 -4.48 -2.31 -4.36 -2.53 -4.24 -2.73 -4.11 -2.93 -3.97 -3.14 -3.82 -3.33 -3.67 -3.52 -3.51 -3.71 -3.33 -3.89 -3.15 -4.07 -2.96 -4.24 -2.76 -4.41 -2.56 -4.59 -2.34 -4.74 -2.11 -4.9 -1.89 -5.06 0 0 -1.63 -5.14 -1.34 -5.17 -1.08 -5.18 -0.8 -5.18 -0.54 -5.18 -0.28 -5.17 -0.03 -5.14 0.24 -5.12 0.47 -5.08 0.73 -5.03 0.96 -4.98 1.2 -4.91 1.43 -4.85 1.66 -4.76 1.89 -4.67 2.1 -4.58 2.32 -4.47 2.53 -4.36 2.73 -4.24 2.94 -4.11 3.14 -3.96 3.33 -3.82 3.52 -3.67 3.71 -3.49 3.89 -3.33 4.06 -3.15 4.24 -2.95 4.41 -2.76 4.58 -2.55 4.73 -2.34 4.89 -2.11 5.05 -1.88 0 0 5.13 -1.62 5.16 -1.35 5.17 -1.07 5.17 -0.81 5.17 -0.54 5.16 -0.28 5.14 -0.02 5.12 0.23 5.07 0.47 5.03 0.72 4.98 0.96 4.91 1.2 4.84 1.43 4.77 1.65 4.67 1.88 4.58 2.1 4.48 2.31 4.36 2.53 4.24 2.73 4.11 2.93 3.97 3.14 3.82 3.33 3.67 3.52 3.51 3.71 3.33 3.89 3.15 4.07 2.96 4.24 2.76 4.41 2.56 4.59 2.34 4.74 2.11 4.9 1.89 5.06 0 0 1.63 5.14 1.34 5.17 1.08 5.18 0.8 5.18 0.54 5.18 0.28 5.17 0.03 5.14 -0.24 5.12 -0.47 5.08 -0.73 5.03 -0.96 4.98 -1.2 4.91 -1.43 4.85 -1.66 4.76 -1.89 4.67 -2.1 4.58 -2.32 4.47 -2.53 4.36 -2.73 4.24 -2.94 4.11 -3.14 3.96 -3.33 3.82 -3.52 3.67 -3.71 3.49 -3.89 3.33 -4.06 3.15 -4.24 2.95 -4.41 2.76 -4.58 2.55 -4.73 2.34 -4.89 2.11 -5.05 1.88z"/>
   </g>
   <g>
    <path class="fil1" d="M4853.99 3050.23l-5.04 1.92 -5.07 1.64 -5.1 1.37 -5.12 1.1 -5.13 0.84 -5.13 0.57 -5.14 0.32 -5.11 0.07 -5.1 -0.19 -5.06 -0.43 -5.02 -0.67 -4.98 -0.91 -4.91 -1.15 -4.86 -1.38 -4.77 -1.6 -4.69 -1.83 -4.6 -2.06 -4.5 -2.27 -4.39 -2.48 -4.27 -2.7 -4.15 -2.9 -4.01 -3.1 -3.86 -3.31 -3.71 -3.5 -3.55 -3.69 -3.38 -3.88 -3.2 -4.07 -3.01 -4.25 -2.82 -4.42 -2.61 -4.6 -2.39 -4.77 -2.17 -4.94 0 0 -1.92 -5.05 -1.65 -5.08 -1.37 -5.11 -1.1 -5.13 -0.84 -5.14 -0.57 -5.14 -0.32 -5.13 -0.06 -5.13 0.18 -5.09 0.44 -5.07 0.67 -5.02 0.92 -4.98 1.15 -4.92 1.39 -4.85 1.61 -4.77 1.83 -4.69 2.06 -4.6 2.27 -4.5 2.49 -4.39 2.7 -4.26 2.9 -4.14 3.11 -4.01 3.3 -3.86 3.5 -3.7 3.7 -3.55 3.87 -3.37 4.07 -3.2 4.24 -3 4.42 -2.81 4.59 -2.61 4.77 -2.39 4.92 -2.16 0 0 5.04 -1.92 5.07 -1.64 5.1 -1.37 5.12 -1.1 5.13 -0.84 5.13 -0.57 5.14 -0.32 5.11 -0.07 5.1 0.19 5.06 0.43 5.02 0.67 4.98 0.91 4.91 1.15 4.86 1.38 4.77 1.6 4.69 1.83 4.6 2.06 4.5 2.27 4.39 2.48 4.27 2.7 4.15 2.9 4.01 3.1 3.86 3.31 3.71 3.5 3.55 3.69 3.38 3.88 3.2 4.07 3.01 4.25 2.82 4.42 2.61 4.6 2.39 4.77 2.17 4.94 0 0 1.92 5.05 1.65 5.08 1.37 5.11 1.1 5.13 0.84 5.14 0.57 5.14 0.32 5.13 0.06 5.13 -0.18 5.09 -0.44 5.07 -0.67 5.02 -0.92 4.98 -1.15 4.92 -1.39 4.85 -1.61 4.77 -1.83 4.69 -2.06 4.6 -2.27 4.5 -2.49 4.39 -2.7 4.26 -2.9 4.14 -3.11 4.01 -3.3 3.86 -3.5 3.7 -3.7 3.55 -3.87 3.37 -4.07 3.2 -4.24 3 -4.42 2.81 -4.59 2.61 -4.77 2.39 -4.92 2.16 0 0zm-2265.2 804.31l2221.62 -910.62 7.58 18.5 -2221.62 910.62 -7.58 -18.5zm43.58 106.31l0 0 -5.04 1.92 -5.07 1.64 -5.1 1.37 -5.12 1.1 -5.13 0.84 -5.13 0.57 -5.14 0.32 -5.11 0.07 -5.1 -0.19 -5.06 -0.43 -5.02 -0.67 -4.98 -0.91 -4.91 -1.15 -4.86 -1.38 -4.77 -1.6 -4.69 -1.83 -4.6 -2.06 -4.5 -2.27 -4.39 -2.48 -4.27 -2.7 -4.15 -2.9 -4.01 -3.1 -3.86 -3.31 -3.71 -3.5 -3.55 -3.69 -3.38 -3.88 -3.2 -4.07 -3.01 -4.25 -2.82 -4.42 -2.61 -4.6 -2.39 -4.77 -2.17 -4.94 0 0 -1.92 -5.05 -1.65 -5.08 -1.37 -5.11 -1.1 -5.13 -0.84 -5.14 -0.57 -5.14 -0.32 -5.13 -0.06 -5.13 0.18 -5.09 0.44 -5.07 0.67 -5.02 0.92 -4.98 1.15 -4.92 1.39 -4.85 1.61 -4.77 1.83 -4.69 2.06 -4.6 2.27 -4.5 2.49 -4.39 2.7 -4.26 2.9 -4.14 3.11 -4.01 3.3 -3.86 3.5 -3.7 3.7 -3.55 3.87 -3.37 4.07 -3.2 4.24 -3 4.42 -2.81 4.59 -2.61 4.77 -2.39 4.92 -2.16 0 0 5.04 -1.92 5.07 -1.64 5.1 -1.37 5.12 -1.1 5.13 -0.84 5.13 -0.57 5.14 -0.32 5.11 -0.07 5.1 0.19 5.06 0.43 5.02 0.67 4.98 0.91 4.91 1.15 4.86 1.38 4.77 1.6 4.69 1.83 4.6 2.06 4.5 2.27 4.39 2.48 4.27 2.7 4.15 2.9 4.01 3.1 3.86 3.31 3.71 3.5 3.55 3.69 3.38 3.88 3.2 4.07 3.01 4.25 2.82 4.42 2.61 4.6 2.39 4.77 2.17 4.94 0 0 1.92 5.05 1.65 5.08 1.37 5.11 1.1 5.13 0.84 5.14 0.57 5.14 0.32 5.13 0.06 5.13 -0.18 5.09 -0.44 5.07 -0.67 5.02 -0.92 4.98 -1.15 4.92 -1.39 4.85 -1.61 4.77 -1.83 4.69 -2.06 4.6 -2.27 4.5 -2.49 4.39 -2.7 4.26 -2.9 4.14 -3.11 4.01 -3.3 3.86 -3.5 3.7 -3.7 3.55 -3.87 3.37 -4.07 3.2 -4.24 3 -4.42 2.81 -4.59 2.61 -4.77 2.39 -4.92 2.16z"/>
   </g>
   <g>
    <path class="fil1" d="M4907.47 3003.79l-3.23 4.31 -3.41 4.09 -3.58 3.89 -3.74 3.66 -3.89 3.45 -4.03 3.23 -4.17 3.02 -4.29 2.79 -4.4 2.56 -4.51 2.35 -4.61 2.11 -4.69 1.89 -4.77 1.66 -4.83 1.43 -4.9 1.19 -4.94 0.96 -4.99 0.72 -5.02 0.49 -5.03 0.24 -5.05 0.01 -5.06 -0.24 -5.04 -0.48 -5.04 -0.73 -5 -0.97 -4.98 -1.23 -4.93 -1.47 -4.87 -1.73 -4.82 -1.98 -4.75 -2.24 -4.66 -2.49 -4.57 -2.76 -4.48 -3.01 0 0 -4.32 -3.24 -4.1 -3.41 -3.89 -3.59 -3.67 -3.75 -3.46 -3.89 -3.23 -4.04 -3.01 -4.17 -2.79 -4.3 -2.57 -4.41 -2.34 -4.51 -2.11 -4.61 -1.89 -4.69 -1.65 -4.78 -1.43 -4.84 -1.19 -4.89 -0.95 -4.95 -0.72 -4.98 -0.48 -5.02 -0.24 -5.04 0 -5.05 0.24 -5.05 0.48 -5.04 0.73 -5.03 0.98 -5 1.23 -4.97 1.47 -4.93 1.73 -4.87 1.98 -4.81 2.24 -4.73 2.49 -4.66 2.74 -4.56 3.01 -4.47 0 0 3.23 -4.31 3.41 -4.09 3.58 -3.89 3.74 -3.66 3.89 -3.45 4.03 -3.23 4.17 -3.02 4.29 -2.79 4.4 -2.56 4.51 -2.35 4.61 -2.11 4.69 -1.89 4.77 -1.66 4.83 -1.43 4.9 -1.19 4.94 -0.96 4.99 -0.72 5.02 -0.49 5.03 -0.24 5.05 -0.01 5.06 0.24 5.04 0.48 5.04 0.73 5 0.97 4.98 1.23 4.93 1.47 4.87 1.73 4.82 1.98 4.75 2.24 4.66 2.49 4.57 2.76 4.48 3.01 0 0 4.32 3.24 4.1 3.41 3.89 3.59 3.67 3.75 3.46 3.89 3.23 4.04 3.01 4.17 2.79 4.3 2.57 4.41 2.34 4.51 2.11 4.61 1.89 4.69 1.65 4.78 1.43 4.84 1.19 4.89 0.95 4.95 0.72 4.98 0.48 5.02 0.24 5.04 0 5.05 -0.24 5.05 -0.48 5.04 -0.73 5.03 -0.98 5 -1.23 4.97 -1.47 4.93 -1.73 4.87 -1.98 4.81 -2.24 4.73 -2.49 4.66 -2.74 4.56 -3.01 4.47 0 0zm-2283.84 3014.35l2190.19 -3080.92 16.3 11.58 -2190.19 3080.92 -16.3 -11.58zm93.65 66.57l0 0 -3.23 4.31 -3.41 4.09 -3.58 3.89 -3.74 3.66 -3.89 3.45 -4.03 3.23 -4.17 3.02 -4.29 2.79 -4.4 2.56 -4.51 2.35 -4.61 2.11 -4.69 1.89 -4.77 1.66 -4.83 1.43 -4.9 1.19 -4.94 0.96 -4.99 0.72 -5.02 0.49 -5.03 0.24 -5.05 0.01 -5.06 -0.24 -5.04 -0.48 -5.04 -0.73 -5 -0.97 -4.98 -1.23 -4.93 -1.47 -4.87 -1.73 -4.82 -1.98 -4.75 -2.24 -4.66 -2.49 -4.57 -2.76 -4.48 -3.01 0 0 -4.32 -3.24 -4.1 -3.41 -3.89 -3.59 -3.67 -3.75 -3.46 -3.89 -3.23 -4.04 -3.01 -4.17 -2.79 -4.3 -2.57 -4.41 -2.34 -4.51 -2.11 -4.61 -1.89 -4.69 -1.65 -4.78 -1.43 -4.84 -1.19 -4.89 -0.95 -4.95 -0.72 -4.98 -0.48 -5.02 -0.24 -5.04 0 -5.05 0.24 -5.05 0.48 -5.04 0.73 -5.03 0.98 -5 1.23 -4.97 1.47 -4.93 1.73 -4.87 1.98 -4.81 2.24 -4.73 2.49 -4.66 2.74 -4.56 3.01 -4.47 0 0 3.23 -4.31 3.41 -4.09 3.58 -3.89 3.74 -3.66 3.89 -3.45 4.03 -3.23 4.17 -3.02 4.29 -2.79 4.4 -2.56 4.51 -2.35 4.61 -2.11 4.69 -1.89 4.77 -1.66 4.83 -1.43 4.9 -1.19 4.94 -0.96 4.99 -0.72 5.02 -0.49 5.03 -0.24 5.05 -0.01 5.06 0.24 5.04 0.48 5.04 0.73 5 0.97 4.98 1.23 4.93 1.47 4.87 1.73 4.82 1.98 4.75 2.24 4.66 2.49 4.57 2.76 4.48 3.01 0 0 4.32 3.24 4.1 3.41 3.89 3.59 3.67 3.75 3.46 3.89 3.23 4.04 3.01 4.17 2.79 4.3 2.57 4.41 2.34 4.51 2.11 4.61 1.89 4.69 1.65 4.78 1.43 4.84 1.19 4.89 0.95 4.95 0.72 4.98 0.48 5.02 0.24 5.04 0 5.05 -0.24 5.05 -0.48 5.04 -0.73 5.03 -0.98 5 -1.23 4.97 -1.47 4.93 -1.73 4.87 -1.98 4.81 -2.24 4.73 -2.49 4.66 -2.74 4.56 -3.01 4.47z"/>
   </g>
   <g>
    <path class="fil1" d="M4908.47 3001.06l-2.68 4.67 -2.88 4.48 -3.08 4.29 -3.26 4.1 -3.44 3.9 -3.61 3.7 -3.77 3.5 -3.91 3.29 -4.06 3.09 -4.19 2.87 -4.31 2.67 -4.43 2.44 -4.53 2.23 -4.63 2.01 -4.71 1.78 -4.79 1.56 -4.86 1.32 -4.92 1.1 -4.97 0.86 -5.01 0.62 -5.05 0.38 -5.06 0.14 -5.09 -0.11 -5.09 -0.35 -5.08 -0.61 -5.07 -0.86 -5.06 -1.12 -5.02 -1.38 -4.98 -1.64 -4.93 -1.91 -4.88 -2.17 -4.81 -2.45 0 0 -4.68 -2.68 -4.49 -2.89 -4.3 -3.09 -4.1 -3.27 -3.91 -3.44 -3.7 -3.62 -3.5 -3.77 -3.29 -3.92 -3.09 -4.06 -2.87 -4.2 -2.67 -4.31 -2.44 -4.43 -2.22 -4.53 -2.01 -4.63 -1.78 -4.72 -1.55 -4.79 -1.32 -4.86 -1.09 -4.92 -0.86 -4.97 -0.61 -5.01 -0.38 -5.05 -0.13 -5.06 0.11 -5.08 0.36 -5.09 0.61 -5.08 0.86 -5.07 1.12 -5.04 1.38 -5.02 1.64 -4.97 1.9 -4.93 2.17 -4.86 2.44 -4.8 0 0 2.68 -4.67 2.88 -4.48 3.08 -4.29 3.26 -4.1 3.44 -3.9 3.61 -3.7 3.77 -3.5 3.91 -3.29 4.06 -3.09 4.19 -2.87 4.31 -2.67 4.43 -2.44 4.53 -2.23 4.63 -2.01 4.71 -1.78 4.79 -1.56 4.86 -1.32 4.92 -1.1 4.97 -0.86 5.01 -0.62 5.05 -0.38 5.06 -0.14 5.09 0.11 5.09 0.35 5.08 0.61 5.07 0.86 5.06 1.12 5.02 1.38 4.98 1.64 4.93 1.91 4.88 2.17 4.81 2.45 0 0 4.68 2.68 4.49 2.89 4.3 3.09 4.1 3.27 3.91 3.44 3.7 3.62 3.5 3.77 3.29 3.92 3.09 4.06 2.87 4.2 2.67 4.31 2.44 4.43 2.22 4.53 2.01 4.63 1.78 4.72 1.55 4.79 1.32 4.86 1.09 4.92 0.86 4.97 0.61 5.01 0.38 5.05 0.13 5.06 -0.11 5.08 -0.36 5.09 -0.61 5.08 -0.86 5.07 -1.12 5.04 -1.38 5.02 -1.64 4.97 -1.9 4.93 -2.17 4.86 -2.44 4.8 0 0zm-1874.33 3225.88l1773.25 -3280.52 17.6 9.52 -1773.25 3280.52 -17.6 -9.52zm101.08 54.64l0 0 -2.68 4.67 -2.88 4.48 -3.08 4.29 -3.26 4.1 -3.44 3.9 -3.61 3.7 -3.77 3.5 -3.91 3.29 -4.06 3.09 -4.19 2.87 -4.31 2.67 -4.43 2.44 -4.53 2.23 -4.63 2.01 -4.71 1.78 -4.79 1.56 -4.86 1.32 -4.92 1.1 -4.97 0.86 -5.01 0.62 -5.05 0.38 -5.06 0.14 -5.09 -0.11 -5.09 -0.35 -5.08 -0.61 -5.07 -0.86 -5.06 -1.12 -5.02 -1.38 -4.98 -1.64 -4.93 -1.91 -4.88 -2.17 -4.81 -2.45 0 0 -4.68 -2.68 -4.49 -2.89 -4.3 -3.09 -4.1 -3.27 -3.91 -3.44 -3.7 -3.62 -3.5 -3.77 -3.29 -3.92 -3.09 -4.06 -2.87 -4.2 -2.67 -4.31 -2.44 -4.43 -2.22 -4.53 -2.01 -4.63 -1.78 -4.72 -1.55 -4.79 -1.32 -4.86 -1.09 -4.92 -0.86 -4.97 -0.61 -5.01 -0.38 -5.05 -0.13 -5.06 0.11 -5.08 0.36 -5.09 0.61 -5.08 0.86 -5.07 1.12 -5.04 1.38 -5.02 1.64 -4.97 1.9 -4.93 2.17 -4.86 2.44 -4.8 0 0 2.68 -4.67 2.88 -4.48 3.08 -4.29 3.26 -4.1 3.44 -3.9 3.61 -3.7 3.77 -3.5 3.91 -3.29 4.06 -3.09 4.19 -2.87 4.31 -2.67 4.43 -2.44 4.53 -2.23 4.63 -2.01 4.71 -1.78 4.79 -1.56 4.86 -1.32 4.92 -1.1 4.97 -0.86 5.01 -0.62 5.05 -0.38 5.06 -0.14 5.09 0.11 5.09 0.35 5.08 0.61 5.07 0.86 5.06 1.12 5.02 1.38 4.98 1.64 4.93 1.91 4.88 2.17 4.81 2.45 0 0 4.68 2.68 4.49 2.89 4.3 3.09 4.1 3.27 3.91 3.44 3.7 3.62 3.5 3.77 3.29 3.92 3.09 4.06 2.87 4.2 2.67 4.31 2.44 4.43 2.22 4.53 2.01 4.63 1.78 4.72 1.55 4.79 1.32 4.86 1.09 4.92 0.86 4.97 0.61 5.01 0.38 5.05 0.13 5.06 -0.11 5.08 -0.36 5.09 -0.61 5.08 -0.86 5.07 -1.12 5.04 -1.38 5.02 -1.64 4.97 -1.9 4.93 -2.17 4.86 -2.44 4.8z"/>
   </g>
   <g>
    <path class="fil1" d="M4871.23 2856.21l4.49 2.97 4.29 3.16 4.09 3.34 3.88 3.52 3.68 3.68 3.46 3.83 3.25 3.98 3.04 4.12 2.83 4.24 2.61 4.37 2.38 4.47 2.16 4.57 1.94 4.66 1.71 4.74 1.49 4.82 1.25 4.88 1.02 4.93 0.78 4.98 0.54 5.02 0.31 5.04 0.06 5.06 -0.18 5.06 -0.43 5.07 -0.67 5.05 -0.93 5.04 -1.18 5.01 -1.44 4.97 -1.69 4.93 -1.95 4.87 -2.21 4.8 -2.48 4.73 -2.74 4.65 0 0 -2.98 4.5 -3.17 4.3 -3.34 4.09 -3.53 3.89 -3.68 3.68 -3.84 3.47 -3.99 3.25 -4.12 3.05 -4.25 2.82 -4.36 2.6 -4.48 2.39 -4.57 2.16 -4.67 1.93 -4.74 1.71 -4.82 1.48 -4.88 1.24 -4.94 1.02 -4.98 0.78 -5.01 0.54 -5.04 0.3 -5.06 0.06 -5.06 -0.19 -5.06 -0.43 -5.06 -0.68 -5.03 -0.93 -5 -1.18 -4.97 -1.43 -4.91 -1.7 -4.87 -1.95 -4.79 -2.2 -4.72 -2.48 -4.64 -2.73 0 0 -4.49 -2.97 -4.29 -3.16 -4.09 -3.34 -3.88 -3.52 -3.68 -3.68 -3.46 -3.83 -3.25 -3.98 -3.04 -4.12 -2.83 -4.24 -2.61 -4.37 -2.38 -4.47 -2.16 -4.57 -1.94 -4.66 -1.71 -4.74 -1.49 -4.82 -1.25 -4.88 -1.02 -4.93 -0.78 -4.98 -0.54 -5.02 -0.31 -5.04 -0.06 -5.06 0.18 -5.06 0.43 -5.07 0.67 -5.05 0.93 -5.04 1.18 -5.01 1.44 -4.97 1.69 -4.93 1.95 -4.87 2.21 -4.8 2.48 -4.73 2.74 -4.65 0 0 2.98 -4.5 3.17 -4.3 3.34 -4.09 3.53 -3.89 3.68 -3.68 3.84 -3.47 3.99 -3.25 4.12 -3.05 4.25 -2.82 4.36 -2.6 4.48 -2.39 4.57 -2.16 4.67 -1.93 4.74 -1.71 4.82 -1.48 4.88 -1.24 4.94 -1.02 4.98 -0.78 5.01 -0.54 5.04 -0.3 5.06 -0.06 5.06 0.19 5.06 0.43 5.06 0.68 5.03 0.93 5 1.18 4.97 1.43 4.91 1.7 4.87 1.95 4.79 2.2 4.72 2.48 4.64 2.73 0 0zm13.34 143.84l-74.24 -46.4 10.6 -16.96 74.24 46.4 -10.6 16.96zm60.9 -97.44l0 0 4.49 2.97 4.29 3.16 4.09 3.34 3.88 3.52 3.68 3.68 3.46 3.83 3.25 3.98 3.04 4.12 2.83 4.24 2.6 4.36 2.39 4.48 2.16 4.57 1.94 4.66 1.71 4.74 1.49 4.82 1.25 4.88 1.02 4.93 0.78 4.98 0.54 5.02 0.31 5.04 0.06 5.06 -0.18 5.06 -0.43 5.07 -0.67 5.05 -0.93 5.04 -1.18 5.01 -1.44 4.97 -1.69 4.93 -1.95 4.87 -2.21 4.8 -2.48 4.73 -2.74 4.65 0 0 -2.98 4.5 -3.17 4.3 -3.34 4.09 -3.53 3.89 -3.68 3.68 -3.84 3.47 -3.99 3.25 -4.12 3.05 -4.25 2.82 -4.36 2.6 -4.48 2.39 -4.57 2.16 -4.67 1.93 -4.74 1.71 -4.82 1.48 -4.88 1.24 -4.94 1.02 -4.98 0.78 -5.01 0.54 -5.04 0.3 -5.06 0.06 -5.06 -0.19 -5.06 -0.43 -5.06 -0.68 -5.03 -0.93 -5 -1.18 -4.97 -1.43 -4.91 -1.7 -4.87 -1.95 -4.79 -2.2 -4.72 -2.48 -4.64 -2.73 0 0 -4.49 -2.97 -4.29 -3.16 -4.09 -3.34 -3.88 -3.52 -3.68 -3.68 -3.46 -3.83 -3.25 -3.98 -3.04 -4.12 -2.83 -4.24 -2.6 -4.36 -2.39 -4.48 -2.16 -4.57 -1.94 -4.66 -1.71 -4.74 -1.49 -4.82 -1.25 -4.88 -1.02 -4.93 -0.78 -4.98 -0.54 -5.02 -0.31 -5.04 -0.06 -5.06 0.18 -5.06 0.43 -5.07 0.67 -5.05 0.93 -5.04 1.18 -5.01 1.44 -4.97 1.69 -4.93 1.95 -4.87 2.21 -4.8 2.48 -4.73 2.74 -4.65 0 0 2.98 -4.5 3.17 -4.3 3.34 -4.09 3.53 -3.89 3.68 -3.68 3.84 -3.47 3.99 -3.25 4.12 -3.05 4.25 -2.82 4.36 -2.6 4.48 -2.39 4.57 -2.16 4.67 -1.93 4.74 -1.71 4.82 -1.48 4.88 -1.24 4.94 -1.02 4.98 -0.78 5.01 -0.54 5.04 -0.3 5.06 -0.06 5.06 0.19 5.06 0.43 5.06 0.68 5.03 0.93 5 1.18 4.97 1.43 4.91 1.7 4.87 1.95 4.79 2.2 4.72 2.48 4.64 2.73z"/>
   </g>
  </g>
  <path class="fil2" d="M7083.06 3417.19l-1523.25 21.98 2.43 1741.27 622.06 0 -34.3 -918.37 1028.6 908.59 695.54 7.32 -700.45 -607.37c700.45,-11.22 601.56,-1153.42 -90.63,-1153.42zm19383.83 34.22l1893.09 0 0 465.32 -1295.53 0 0 195.93 413.86 413.87 592.68 0 0 -413.87 -1006.54 0 0 1076.98 -607.31 2.97 9.75 -1741.2zm-2351.39 1724.11l7.7 -1738.8 1739.7 2.74c345.77,30.38 513.83,196.58 500.96,500.99l-0.35 712.39c-2.17,324.22 -160.25,510.36 -508.88,527.6l-1739.13 -4.92zm1634.19 -1255.78l-1051.69 -4.2 0 784.89 1043.59 1.21c54.29,0.18 79.66,-28.61 81.22,-81.22l0 -627.59c-1.24,-52.24 -25.91,-76.24 -73.12,-73.09zm-3786.5 156.19l898.79 0 0 345.31 -898.79 0 0 -345.31zm-1639.01 -629.41c273.92,24.3 372.96,176.79 333.07,431.01l-1312.92 -1.96c-127.49,-0.15 -161.97,48.22 -166.28,104.85 -5.24,68.61 56.43,125.51 195.9,122.44l888.76 -9.51c256.22,3.38 464.02,209.85 461.84,505.46 -2.68,366.45 -146.27,562.97 -461.61,574.25l-1258.79 2.46c-292.78,-15.24 -405.45,-169.93 -364.89,-443.27l1377.73 -1.22c74.28,0.81 114.58,-35.32 116.17,-104.08 1.61,-70.05 -48.02,-107.22 -144.49,-107.77l-994.33 -19.58c-271.51,-10.47 -408.85,-188.36 -398.53,-550.45 -0.95,-341.03 157.01,-493.23 427.86,-511.3l1300.51 8.67zm-3999.66 1314.5l-8.73 -1334.08 592.68 0 -4.92 1072.63c0.63,71.68 22.79,136.18 95.51,137.16l805.74 -4.89c58.75,-1.64 94.96,-35.32 95.51,-95.51l0 -1111.85 590.22 2.46 0 1302.9c10.58,190.99 -257.15,446.08 -489.82,457.95l-1180.44 -12.27c-230.82,0 -476.07,-209.62 -495.75,-414.5zm-505.87 -1314.5c273.93,24.3 372.97,176.79 333.08,431.01l-1312.91 -1.96c-127.51,-0.15 -161.98,48.22 -166.29,104.85 -5.24,68.61 56.43,125.51 195.91,122.44l888.75 -9.51c256.21,3.38 464.02,209.85 461.85,505.46 -2.69,366.45 -146.28,562.97 -461.62,574.25l-1258.8 2.46c-292.77,-15.24 -405.43,-169.93 -364.88,-443.27l1377.73 -1.22c74.28,0.81 114.57,-35.32 116.16,-104.08 1.62,-70.05 -48.01,-107.22 -144.48,-107.77l-994.32 -19.58c-271.53,-10.47 -408.86,-188.36 -398.54,-550.45 -0.95,-341.03 157.01,-493.23 427.86,-511.3l1300.5 8.67zm-3703.48 4.89l1893.09 0 0 465.32 -1295.53 0 0 195.93 413.87 413.87 592.67 0 0 -413.87 -1006.54 0 0 602.46 1295.53 0 0 467.75 -1902.84 9.74 9.75 -1741.2zm-1548.39 1737.62l-606.13 -8.62 0 -1738.78 1520.39 5.91c389.42,-1.83 553.22,221.99 531.88,630.82 -34.74,365.3 -201.61,573.76 -536.36,582.9l-492.25 -6.13 -417.53 -378.4 0 912.3zm816.73 -1252.83l-795.04 -4.78 1.22 264.49 805.77 -12.23c143.9,-4.05 133.57,-252.26 -11.95,-247.48zm-3416.35 -484.79l1893.09 0 0 465.32 -1295.52 0 0 195.93 413.86 413.87 592.67 0 0 -413.87 -1006.53 0 0 602.46 1295.52 0 0 467.75 -1902.84 9.74 9.75 -1741.2zm-1013.54 484.79l-795.03 -4.78 1.22 264.49 805.76 -12.23c143.9,-4.05 133.58,-252.26 -11.95,-247.48z"/>
 </g>
</svg>
